Coordinates
version=1
nRows=35
nColumns=24
inDegrees=yes

Units are S.I. units (second, meters, Newtons, ...)
Angles are in degrees.

endheader
time	pelvis_tilt	pelvis_list	pelvis_rotation	pelvis_tx	pelvis_ty	pelvis_tz	hip_flexion_r	hip_adduction_r	hip_rotation_r	knee_angle_r	ankle_angle_r	subtalar_angle_r	mtp_angle_r	hip_flexion_l	hip_adduction_l	hip_rotation_l	knee_angle_l	ankle_angle_l	subtalar_angle_l	mtp_angle_l	lumbar_extension	lumbar_bending	lumbar_rotation
44.99800000	4.84455933	-1.84559258	-0.77772078	0.60102028	1.04559875	-0.02160049	20.88669620	-2.90617367	-6.95037445	-24.09367184	1.54296874	-0.00000082	0.00000000	14.08148467	1.38076320	0.20135362	-64.53704656	-14.66395926	0.00000249	0.00000000	-19.54310531	-0.47001089	-4.72635202
45.00000000	4.84455933	-1.84559258	-0.77772078	0.60102028	1.04559875	-0.02160049	20.79404523	-2.90617367	-6.95037445	-24.12858472	1.69463592	-0.00000082	0.00000000	14.46467565	1.38076320	0.20135362	-64.86581555	-14.15387768	0.00000249	0.00000000	-19.54310531	-0.47001089	-4.72635202
45.00200000	4.84455933	-1.84559258	-0.77772078	0.60102028	1.04559875	-0.02160049	20.69890178	-2.90617367	-6.95037445	-24.16180417	1.84482958	-0.00000082	0.00000000	14.84371501	1.38076320	0.20135362	-65.18050844	-13.64202748	0.00000249	0.00000000	-19.54310531	-0.47001089	-4.72635202
45.00400000	4.84455933	-1.84559258	-0.77772078	0.60102028	1.04559875	-0.02160049	20.60141960	-2.90617367	-6.95037445	-24.19285967	1.99342669	-0.00000082	0.00000000	15.21809030	1.38076320	0.20135362	-65.48094648	-13.13135970	0.00000249	0.00000000	-19.54310531	-0.47001089	-4.72635202
45.00600000	4.84455933	-1.84559258	-0.77772078	0.60102028	1.04559875	-0.02160049	20.50103305	-2.90617367	-6.95037445	-24.22168260	2.14023804	-0.00000082	0.00000000	15.58714194	1.38076320	0.20135362	-65.76701846	-12.62469710	0.00000249	0.00000000	-19.54310531	-0.47001089	-4.72635202
45.00800000	4.84455933	-1.84559258	-0.77772078	0.60102028	1.04559875	-0.02160049	20.39773488	-2.90617367	-6.95037445	-24.24793257	2.28517895	-0.00000082	0.00000000	15.95135097	1.38076320	0.20135362	-66.03813764	-12.12434475	0.00000249	0.00000000	-19.54310531	-0.47001089	-4.72635202
45.01000000	4.84455933	-1.84559258	-0.77772078	0.60102028	1.04559875	-0.02160049	20.29162307	-2.90617367	-6.95037445	-24.27124914	2.42815041	-0.00000082	0.00000000	16.31008908	1.38076320	0.20135362	-66.29430671	-11.63257046	0.00000249	0.00000000	-19.54310531	-0.47001089	-4.72635202
45.01200000	4.84455933	-1.84559258	-0.77772078	0.60102028	1.04559875	-0.02160049	20.18193644	-2.90617367	-6.95037445	-24.29174276	2.56898845	-0.00000082	0.00000000	16.66368195	1.38076320	0.20135362	-66.53505999	-11.15128006	0.00000249	0.00000000	-19.54310531	-0.47001089	-4.72635202
45.01400000	4.84455933	-1.84559258	-0.77772078	0.60102028	1.04559875	-0.02160049	20.06871010	-2.90617367	-6.95037445	-24.30913679	2.70759674	-0.00000082	0.00000000	17.01184210	1.38076320	0.20135362	-66.76033373	-10.68215681	0.00000249	0.00000000	-19.54310531	-0.47001089	-4.72635202
45.01600000	4.84455933	-1.84559258	-0.77772078	0.60102028	1.04559875	-0.02160049	19.95144399	-2.90617367	-6.95037445	-24.32345836	2.84385975	-0.00000082	0.00000000	17.35457093	1.38076320	0.20135362	-66.96995955	-10.22657995	0.00000249	0.00000000	-19.54310531	-0.47001089	-4.72635202
45.01800000	4.84455933	-1.84559258	-0.77772078	0.60102028	1.04559875	-0.02160049	19.83030655	-2.90617367	-6.95037445	-24.33441268	2.97772400	-0.00000082	0.00000000	17.69153316	1.38076320	0.20135362	-67.16402680	-9.78566969	0.00000249	0.00000000	-19.54310531	-0.47001089	-4.72635202
45.02000000	4.84455933	-1.84559258	-0.77772078	0.60102028	1.04559875	-0.02160049	19.70495235	-2.90617367	-6.95037445	-24.34199775	3.10911197	-0.00000082	0.00000000	18.02272855	1.38076320	0.20135362	-67.34248674	-9.36025919	0.00000249	0.00000000	-19.54310531	-0.47001089	-4.72635202
45.02200000	4.84455933	-1.84559258	-0.77772078	0.60102028	1.04559875	-0.02160049	19.57533899	-2.90617367	-6.95037445	-24.34607880	3.23797252	-0.00000082	0.00000000	18.34782475	1.38076320	0.20135362	-67.50552645	-8.95095749	0.00000249	0.00000000	-19.54310531	-0.47001089	-4.72635202
45.02400000	4.84455933	-1.84559258	-0.77772078	0.60102028	1.04559875	-0.02160049	19.44139945	-2.90617367	-6.95037445	-24.34656153	3.36427650	-0.00000082	0.00000000	18.66683370	1.38076320	0.20135362	-67.65319581	-8.55809224	0.00000249	0.00000000	-19.54310531	-0.47001089	-4.72635202
45.02600000	4.84455933	-1.84559258	-0.77772078	0.60102028	1.04559875	-0.02160049	19.30293977	-2.90617367	-6.95037445	-24.34344275	3.48800622	-0.00000082	0.00000000	18.97990989	1.38076320	0.20135362	-67.78551814	-8.18172834	0.00000249	0.00000000	-19.54310531	-0.47001089	-4.72635202
45.02800000	4.84455933	-1.84559258	-0.77772078	0.60102028	1.04559875	-0.02160049	19.15999858	-2.90617367	-6.95037445	-24.33662782	3.60917318	-0.00000082	0.00000000	19.28685431	1.38076320	0.20135362	-67.90273493	-7.82176866	0.00000249	0.00000000	-19.54310531	-0.47001089	-4.72635202
45.03000000	4.84455933	-1.84559258	-0.77772078	0.60102028	1.04559875	-0.02160049	19.01220297	-2.90617367	-6.95037445	-24.32626480	3.72777347	-0.00000082	0.00000000	19.58813976	1.38076320	0.20135362	-68.00474185	-7.47786295	0.00000249	0.00000000	-19.54310531	-0.47001089	-4.72635202
45.03200000	4.84455933	-1.84559258	-0.77772078	0.60102028	1.04559875	-0.02160049	18.85979755	-2.90617367	-6.95037445	-24.31221040	3.84385942	-0.00000082	0.00000000	19.88331626	1.38076320	0.20135362	-68.09195895	-7.14956746	0.00000249	0.00000000	-19.54310531	-0.47001089	-4.72635202
45.03400000	4.84455933	-1.84559258	-0.77772078	0.60102028	1.04559875	-0.02160049	18.70283064	-2.90617367	-6.95037445	-24.29445783	3.95748930	-0.00000082	0.00000000	20.17257708	1.38076320	0.20135362	-68.16445066	-6.83624485	0.00000249	0.00000000	-19.54310531	-0.47001089	-4.72635202
45.03600000	4.84455933	-1.84559258	-0.77772078	0.60102028	1.04559875	-0.02160049	18.54147266	-2.90617367	-6.95037445	-24.27296607	4.06874507	-0.00000082	0.00000000	20.45557048	1.38076320	0.20135362	-68.22257794	-6.53717359	0.00000249	0.00000000	-19.54310531	-0.47001089	-4.72635202
45.03800000	4.84455933	-1.84559258	-0.77772078	0.60102028	1.04559875	-0.02160049	18.37574215	-2.90617367	-6.95037445	-24.24780443	4.17770555	-0.00000082	0.00000000	20.73273384	1.38076320	0.20135362	-68.26625544	-6.25147327	0.00000249	0.00000000	-19.54310531	-0.47001089	-4.72635202
45.04000000	4.84455933	-1.84559258	-0.77772078	0.60102028	1.04559875	-0.02160049	18.20708621	-2.90617367	-6.95037445	-24.21832572	4.28455760	-0.00000082	0.00000000	21.00038218	1.38076320	0.20135362	-68.29761962	-5.97860346	0.00000249	0.00000000	-19.54310531	-0.47001089	-4.72635202
45.04200000	4.84455933	-1.84559258	-0.77772078	0.60102028	1.04559875	-0.02160049	18.03419910	-2.90617367	-6.95037445	-24.18534012	4.38931129	-0.00000082	0.00000000	21.26274839	1.38076320	0.20135362	-68.31449966	-5.71720867	0.00000249	0.00000000	-19.54310531	-0.47001089	-4.72635202
45.04400000	4.84455933	-1.84559258	-0.77772078	0.60102028	1.04559875	-0.02160049	17.85744161	-2.90617367	-6.95037445	-24.14881016	4.49209155	-0.00000082	0.00000000	21.51957505	1.38076320	0.20135362	-68.31714284	-5.46638448	0.00000249	0.00000000	-19.54310531	-0.47001089	-4.72635202
45.04600000	4.84455933	-1.84559258	-0.77772078	0.60102028	1.04559875	-0.02160049	17.67653605	-2.90617367	-6.95037445	-24.10904016	4.59301191	-0.00000082	0.00000000	21.77103614	1.38076320	0.20135362	-68.30556867	-5.22514739	0.00000249	0.00000000	-19.54310531	-0.47001089	-4.72635202
45.04800000	4.84455933	-1.84559258	-0.77772078	0.60102028	1.04559875	-0.02160049	17.49110072	-2.90617367	-6.95037445	-24.06640284	4.69219776	-0.00000082	0.00000000	22.01767103	1.38076320	0.20135362	-68.27957357	-4.99253455	0.00000249	0.00000000	-19.54310531	-0.47001089	-4.72635202
45.05000000	4.84455933	-1.84559258	-0.77772078	0.60102028	1.04559875	-0.02160049	17.30211576	-2.90617367	-6.95037445	-24.02056776	4.78982716	-0.00000082	0.00000000	22.25887560	1.38076320	0.20135362	-68.23957882	-4.76774737	0.00000249	0.00000000	-19.54310531	-0.47001089	-4.72635202
45.05200000	4.84455933	-1.84559258	-0.77772078	0.60102028	1.04559875	-0.02160049	17.10989826	-2.90617367	-6.95037445	-23.97155304	4.88605831	-0.00000082	0.00000000	22.49469594	1.38076320	0.20135362	-68.18563290	-4.54998398	0.00000249	0.00000000	-19.54310531	-0.47001089	-4.72635202
45.05400000	4.84455933	-1.84559258	-0.77772078	0.60102028	1.04559875	-0.02160049	16.91430779	-2.90617367	-6.95037445	-23.91961155	4.98103493	-0.00000082	0.00000000	22.72528964	1.38076320	0.20135362	-68.11771077	-4.33849284	0.00000249	0.00000000	-19.54310531	-0.47001089	-4.72635202
45.05600000	4.84455933	-1.84559258	-0.77772078	0.60102028	1.04559875	-0.02160049	16.71569002	-2.90617367	-6.95037445	-23.86473910	5.07492320	-0.00000082	0.00000000	22.95052886	1.38076320	0.20135362	-68.03593328	-4.13263506	0.00000249	0.00000000	-19.54310531	-0.47001089	-4.72635202
45.05800000	4.84455933	-1.84559258	-0.77772078	0.60102028	1.04559875	-0.02160049	16.51414690	-2.90617367	-6.95037445	-23.80705094	5.16788377	-0.00000082	0.00000000	23.17051833	1.38076320	0.20135362	-67.94028102	-3.93183111	0.00000249	0.00000000	-19.54310531	-0.47001089	-4.72635202
45.06000000	4.84455933	-1.84559258	-0.77772078	0.60102028	1.04559875	-0.02160049	16.30993344	-2.90617367	-6.95037445	-23.74657192	5.26007441	-0.00000082	0.00000000	23.38518295	1.38076320	0.20135362	-67.83082469	-3.73560546	0.00000249	0.00000000	-19.54310531	-0.47001089	-4.72635202
45.06200000	4.84455933	-1.84559258	-0.77772078	0.60102028	1.04559875	-0.02160049	16.10330850	-2.90617367	-6.95037445	-23.68331410	5.35165438	-0.00000082	0.00000000	23.59444774	1.38076320	0.20135362	-67.70763098	-3.54355959	0.00000249	0.00000000	-19.54310531	-0.47001089	-4.72635202
45.06400000	4.84455933	-1.84559258	-0.77772078	0.60102028	1.04559875	-0.02160049	15.89450468	-2.90617367	-6.95037445	-23.61729460	5.44279454	-0.00000082	0.00000000	23.79854813	1.38076320	0.20135362	-67.57059665	-3.35533822	0.00000249	0.00000000	-19.54310531	-0.47001089	-4.72635202
45.06600000	4.84455933	-1.84559258	-0.77772078	0.60102028	1.04559875	-0.02160049	15.68366266	-2.90617367	-6.95037445	-23.54856210	5.53362327	-0.00000082	0.00000000	23.99741805	1.38076320	0.20135362	-67.41978158	-3.17069592	0.00000249	0.00000000	-19.54310531	-0.47001089	-4.72635202
